<?xml version="1.0" encoding="utf-8"?>
<!-- Generator: Adobe Illustrator 25.4.1, SVG Export Plug-In . SVG Version: 6.00 Build 0)  -->
<svg version="1.1" id="Layer_1" xmlns="http://www.w3.org/2000/svg" xmlns:xlink="http://www.w3.org/1999/xlink" x="0px" y="0px"
	 viewBox="0 0 64 64" style="enable-background:new 0 0 64 64;" xml:space="preserve">
<style type="text/css">
	.st0{fill:#7AA6AF;}
</style>
<g>
	<path class="st0" d="M28.1,27.9c0-1.9-1.3-1.9-1.3-1.9h-0.7h-4.6h0V30h5C27.3,30,28.1,29.8,28.1,27.9z"/>
	<path class="st0" d="M40.4,30c-2.8,0-3.2,2.8-3.2,2.8h6C43.2,32.9,43.2,30,40.4,30z"/>
	<path class="st0" d="M26.8,32.9h-5.3v4.9h4.7c0.1,0,0.2,0,0.3,0c0.8,0,2.2-0.2,2.2-2.4C28.7,32.8,26.8,32.9,26.8,32.9z"/>
	<path class="st0" d="M32,7.2C18.3,7.2,7.2,18.3,7.2,32S18.3,56.8,32,56.8S56.8,45.7,56.8,32S45.7,7.2,32,7.2z M36.4,23.8h7.5V26
		h-7.5V23.8z M32.6,35.6c0,5.6-5.8,5.4-5.8,5.4h-5.3h-0.2h-4V22.7h4h0.2h5.3c2.9,0,5.2,1.6,5.2,4.9c0,3.3-2.8,3.5-2.8,3.5
		C32.8,31.1,32.6,35.6,32.6,35.6z M46.7,35.3h-9.5c0,3.4,3.2,3.2,3.2,3.2c3,0,2.9-2,2.9-2h3.2c0,5.2-6.3,4.9-6.3,4.9c-7.5,0-7-7-7-7
		s0-7,7-7C47.7,27.4,46.7,35.3,46.7,35.3z"/>
</g>
</svg>
