<?xml version="1.0" encoding="utf-8"?>
<!-- Generator: Adobe Illustrator 25.4.1, SVG Export Plug-In . SVG Version: 6.00 Build 0)  -->
<svg version="1.1" id="Facebook" xmlns="http://www.w3.org/2000/svg" xmlns:xlink="http://www.w3.org/1999/xlink" x="0px" y="0px"
	 viewBox="0 0 144.1 144" style="enable-background:new 0 0 144.1 144;" xml:space="preserve">
<style type="text/css">
	.st0{fill:#7AA6AF;}
</style>
<path class="st0" d="M72,14.2c-31.9,0-57.8,25.9-57.8,57.8c0,31.9,25.9,57.8,57.8,57.8s57.8-25.9,57.8-57.8
	C129.9,40.1,104,14.2,72,14.2z M91.8,51.2c0,0.6-0.4,1-1,1H76.7v7.6h14.1c0.6,0,1,0.4,1,1v14.1c0,0.6-0.4,1-1,1H77.7v30.9
	c0,0.6-0.4,1-1,1H63.4c-0.6,0-1-0.4-1-1V75.8h-9.1c-0.6,0-1-0.4-1-1V60.7c0-0.6,0.4-1,1-1h9.1V54c0-0.1,0-0.2,0-0.2
	c0-8.1,1.7-17.4,15.1-17.5c0,0,0.1,0,0.1,0h13.2c0.6,0,1,0.4,1,1L91.8,51.2L91.8,51.2z"/>
</svg>
