<?xml version="1.0" encoding="utf-8"?>
<!-- Generator: Adobe Illustrator 25.4.1, SVG Export Plug-In . SVG Version: 6.00 Build 0)  -->
<svg version="1.1" id="Camada_1" xmlns="http://www.w3.org/2000/svg" xmlns:xlink="http://www.w3.org/1999/xlink" x="0px" y="0px"
	 viewBox="0 0 48 48" style="enable-background:new 0 0 48 48;" xml:space="preserve">
<style type="text/css">
	.st0{fill-rule:evenodd;clip-rule:evenodd;fill:#7AA6AF;}
</style>
<path class="st0" d="M0,24C0,10.7,10.7,0,24,0s24,10.7,24,24S37.3,48,24,48S0,37.3,0,24z M24,11.2c-3.5,0-3.9,0-5.3,0.1
	c-1.4,0.1-2.3,0.3-3.1,0.6c-0.8,0.3-1.6,0.8-2.3,1.5c-0.7,0.7-1.1,1.4-1.5,2.3c-0.3,0.8-0.5,1.7-0.6,3.1c-0.1,1.4-0.1,1.8-0.1,5.3
	s0,3.9,0.1,5.3c0.1,1.4,0.3,2.3,0.6,3.1c0.3,0.8,0.8,1.6,1.5,2.3c0.7,0.7,1.4,1.2,2.3,1.5c0.8,0.3,1.7,0.5,3.1,0.6
	c1.4,0.1,1.8,0.1,5.3,0.1c3.5,0,3.9,0,5.3-0.1c1.4-0.1,2.3-0.3,3.1-0.6c0.8-0.3,1.6-0.8,2.3-1.5c0.7-0.7,1.1-1.4,1.5-2.3
	c0.3-0.8,0.5-1.7,0.6-3.1c0.1-1.4,0.1-1.8,0.1-5.3s0-3.9-0.1-5.3c-0.1-1.4-0.3-2.3-0.6-3.1c-0.3-0.8-0.8-1.6-1.5-2.3
	c-0.7-0.7-1.4-1.1-2.3-1.5c-0.8-0.3-1.7-0.5-3.1-0.6C27.9,11.2,27.5,11.2,24,11.2L24,11.2z"/>
<path class="st0" d="M22.9,13.5c0.3,0,0.7,0,1.1,0c3.4,0,3.8,0,5.2,0.1c1.2,0.1,1.9,0.3,2.4,0.4c0.6,0.2,1,0.5,1.5,1
	c0.4,0.4,0.7,0.9,1,1.5c0.2,0.5,0.4,1.1,0.4,2.4c0.1,1.3,0.1,1.8,0.1,5.2s0,3.8-0.1,5.2c-0.1,1.2-0.3,1.9-0.4,2.4
	c-0.2,0.6-0.5,1-1,1.5c-0.4,0.4-0.9,0.7-1.5,1c-0.5,0.2-1.1,0.4-2.4,0.4c-1.3,0.1-1.8,0.1-5.2,0.1c-3.4,0-3.8,0-5.2-0.1
	c-1.2-0.1-1.9-0.3-2.4-0.4c-0.6-0.2-1-0.5-1.5-1c-0.4-0.4-0.7-0.9-1-1.5c-0.2-0.5-0.4-1.1-0.4-2.4c-0.1-1.3-0.1-1.8-0.1-5.2
	s0-3.8,0.1-5.2c0.1-1.2,0.3-1.9,0.4-2.4c0.2-0.6,0.5-1,1-1.5c0.4-0.4,0.9-0.7,1.5-1c0.5-0.2,1.1-0.4,2.4-0.4
	C20,13.5,20.5,13.5,22.9,13.5L22.9,13.5z M30.8,15.6c-0.8,0-1.5,0.7-1.5,1.5c0,0.8,0.7,1.5,1.5,1.5c0.8,0,1.5-0.7,1.5-1.5
	S31.7,15.6,30.8,15.6z M24,17.4c-3.6,0-6.6,2.9-6.6,6.6c0,3.6,2.9,6.6,6.6,6.6s6.6-2.9,6.6-6.6C30.6,20.4,27.6,17.4,24,17.4z"/>
<path class="st0" d="M24,19.7c2.4,0,4.3,1.9,4.3,4.3c0,2.4-1.9,4.3-4.3,4.3c-2.4,0-4.3-1.9-4.3-4.3C19.7,21.6,21.6,19.7,24,19.7z"/>
</svg>
